<svg width="146" height="58" viewBox="0 0 146 58" fill="none" xmlns="http://www.w3.org/2000/svg">
<path d="M129.072 46.4233C131.623 46.4233 133.179 45.9456 134.109 44.6428H137.784C136.941 47.8998 133.785 49.4415 129.072 49.4415C124.229 49.4415 120.467 47.5307 120.467 42.8406C120.467 38.1288 124.121 36.218 129.288 36.218C134.13 36.218 138 37.8899 138 43.7091H124.25C124.661 45.7502 126.607 46.4233 129.072 46.4233ZM129.266 39.0408C126.737 39.0408 124.964 39.5402 124.38 41.3424H134.044C133.417 39.5402 131.601 39.0408 129.266 39.0408Z" fill="#F6F6F7"/>
<path fill-rule="evenodd" clip-rule="evenodd" d="M102.258 40.192C102.258 39.2377 102.574 38.5045 103.133 37.9439L103.435 39.4291L104.404 37.1246L104.416 37.0957C105.979 36.4017 108.24 36.2184 110.689 36.2184C115.489 36.2184 118.969 36.8481 118.969 40.3657H115.251C115.251 39.3017 113.91 39.0412 110.473 39.0412C106.971 39.0412 105.976 39.3017 105.976 40.04C105.976 40.8434 106.646 40.9736 111.035 41.2993C111.203 41.3118 111.368 41.324 111.532 41.336C116.232 41.681 119.402 41.9136 119.402 45.2078C119.402 48.8122 116.159 49.4419 111.251 49.4419C106.344 49.4419 101.804 48.8122 101.804 44.7301H105.5C105.5 46.098 106.906 46.6191 111.035 46.6191C115.035 46.6191 115.683 46.3586 115.683 45.3598C115.683 44.3827 115.078 44.3175 110.603 44.0352C105.003 43.7095 102.258 43.2753 102.258 40.192ZM91.2785 38.4332V32.6314C91.5581 32.6545 91.8243 32.6917 92.0757 32.7409C92.5955 32.8427 93.0373 32.9927 93.399 33.1677C93.3692 33.1902 93.34 33.2133 93.3113 33.2372C92.8873 33.5894 92.6383 34.0473 92.5083 34.5046C92.2578 35.3864 92.4171 36.3707 92.7367 37.0127L93.5964 38.7397L94.1649 36.8952C94.2289 36.6873 94.5109 36.311 94.9754 35.9957V49.2248H91.2785V47.2272C89.8948 48.682 87.668 49.4419 84.9224 49.4419C80.8363 49.4419 77.334 47.7266 77.334 42.8411C77.334 37.9555 80.8363 36.2185 84.9224 36.2185C87.668 36.2185 89.8948 36.9784 91.2785 38.4332ZM94.2438 32.7564C93.5276 32.286 92.5085 31.9473 91.2864 31.8541H94.9754V33.4064C94.7892 33.1723 94.5429 32.9529 94.2438 32.7564ZM94.9754 33.4203V33.4064L94.986 33.4198L94.9754 33.4203ZM94.9754 33.4203V35.099C94.5856 35.2951 94.2371 35.5565 93.9664 35.8355C93.6998 36.1103 93.5085 36.4022 93.4273 36.6659C93.2848 36.3796 93.1824 35.9903 93.1613 35.5805C93.1226 34.829 93.3572 34.0088 94.1193 33.6298C94.3527 33.5137 94.6356 33.439 94.9754 33.4203ZM91.2785 42.8411C91.2785 45.3598 89.4624 46.3369 86.1547 46.3369C82.8469 46.3369 81.0525 45.3598 81.0525 42.8411C81.0525 40.3006 82.8469 39.3235 86.1547 39.3235C89.4624 39.3235 91.2785 40.3006 91.2785 42.8411Z" fill="#F6F6F7"/>
<path d="M98.2436 36.4351H98.5478H98.852C98.852 45.2455 100.396 49.2243 100.396 49.2243H96.6994C96.6994 49.2243 98.2436 45.2219 98.2436 36.4351Z" fill="#F6F6F7"/>
<path d="M87.6138 32.2674C91.0961 31.2636 93.9665 32.1184 94.9859 33.4191C92.9218 33.5249 92.9425 35.6915 93.4272 36.6652C93.7423 35.6429 95.7115 34.1953 97.3128 34.9715L97.15 36.0721C97.1135 36.3185 97.3147 36.5351 97.562 36.5156L98.546 36.4382L99.5372 36.5156C99.7859 36.535 99.9874 36.316 99.9485 36.0686L99.7761 34.9715C101.411 34.2674 103.509 35.9194 103.693 36.8223C104.812 34.1601 102.564 33.1601 101.411 33.4367C103.416 31.4226 106.281 31.7103 108.573 32.2858C106.281 29.1208 101.984 29.984 100.838 31.1349C101.411 29.6907 102.482 28.9951 104.812 29.2797C102.104 27.0661 98.8929 28.7105 98.546 29.984C97.6866 27.3945 94.2646 27.2875 92.53 28.4891C94.9258 28.1729 95.8703 29.8172 96.5407 31.1349C93.5613 28.1425 89.3942 30.0322 87.6138 32.2674Z" fill="#F6F6F7"/>
<path d="M67.6399 36.218C72.9583 36.218 75.985 37.9334 76.0282 42.7755V49.2243H72.3097V47.6393C70.0613 48.7466 67.5751 49.4415 64.57 49.4415C61.0028 49.4415 58.776 48.2907 58.776 45.4028C58.776 42.0806 62.408 41.0384 66.4509 41.0384C68.6344 41.0384 70.645 41.3858 72.3097 41.9504C72.3097 39.5185 69.1965 39.323 67.467 39.323C65.8023 39.323 63.7701 39.475 61.1541 40.2567L59.8353 37.5425C62.4297 36.6957 64.9807 36.218 67.6399 36.218ZM72.3097 45.2508V44.252C71.0125 43.8394 69.2614 43.4703 66.9049 43.4703C64.1376 43.4703 62.4729 43.948 62.4729 45.2508C62.4729 46.597 63.7052 46.7056 65.6293 46.7056C67.6399 46.7056 70.4072 46.0759 72.3097 45.2508Z" fill="#F6F6F7"/>
<path d="M55.136 36.218C56.6493 36.218 57.7087 36.4351 58.5735 36.6523V39.7573C57.3628 39.4533 56.3899 39.323 55.3089 39.323C53.2335 39.323 50.8554 39.8007 48.6069 41.5595V49.2243H44.91V36.4352H48.6069V38.6065C50.5094 36.8911 52.7579 36.218 55.136 36.218Z" fill="#F6F6F7"/>
<path d="M34.873 36.218C40.1913 36.218 43.218 37.9334 43.2613 42.7755V49.2243H39.5427V47.6393C37.2943 48.7466 34.8081 49.4415 31.803 49.4415C28.2358 49.4415 26.009 48.2907 26.009 45.4028C26.009 42.0806 29.6411 41.0384 33.6839 41.0384C35.8675 41.0384 37.8781 41.3858 39.5427 41.9504C39.5427 39.5185 36.4296 39.323 34.7 39.323C33.0353 39.323 31.0031 39.475 28.3872 40.2567L27.0684 37.5425C29.6627 36.6957 32.2138 36.218 34.873 36.218ZM39.5427 45.2508V44.252C38.2456 43.8394 36.4944 43.4703 34.1379 43.4703C31.3706 43.4703 29.7059 43.948 29.7059 45.2508C29.7059 46.597 30.9382 46.7056 32.8624 46.7056C34.873 46.7056 37.6402 46.0759 39.5427 45.2508Z" fill="#F6F6F7"/>
<path d="M20.1069 34.0254C23.5444 34.0254 25.9009 36.2184 25.9009 39.6057C25.9009 42.993 23.5444 45.1644 20.1069 45.1644H12.1078V49.2248H8.21631V34.0254H20.1069ZM19.026 41.8856C20.1934 41.8856 22.0094 41.8856 22.0094 39.6057C22.0094 37.3041 20.1934 37.3041 19.026 37.3041H12.1078V41.8856H19.026Z" fill="#F6F6F7"/>
<path d="M115.843 19.1391H119.54C119.54 20.507 120.945 21.0282 125.075 21.0282C129.074 21.0282 129.723 20.7676 129.723 19.7688C129.723 18.7917 129.118 18.7265 124.642 18.4443C119.043 18.1186 116.297 17.6843 116.297 14.601C116.297 11.2571 120.189 10.6274 124.729 10.6274C129.528 10.6274 133.009 11.2571 133.009 14.7747H129.29C129.29 13.7107 127.95 13.4502 124.513 13.4502C121.01 13.4502 120.016 13.7107 120.016 14.449C120.016 15.2524 120.686 15.3827 125.075 15.7084C130.047 16.0775 133.441 16.2078 133.441 19.6168C133.441 23.2212 130.199 23.8509 125.291 23.8509C120.383 23.8509 115.843 23.2212 115.843 19.1391Z" fill="#F6F6F7"/>
<path d="M114.208 8L113.906 14.9483H110.62L110.317 8H114.208Z" fill="#F6F6F7"/>
<path d="M105.236 10.6274C106.75 10.6274 107.809 10.8446 108.674 11.0617V14.1667C107.463 13.8627 106.49 13.7325 105.409 13.7325C103.334 13.7325 100.956 14.2102 98.7072 15.9689V23.6338H95.0103V10.8446H98.7072V13.0159C100.61 11.3006 102.858 10.6274 105.236 10.6274Z" fill="#F6F6F7"/>
<path d="M84.6718 20.8327C87.2228 20.8327 88.7794 20.355 89.7091 19.0522H93.3844C92.5412 22.3093 89.3848 23.8509 84.6718 23.8509C79.829 23.8509 76.0673 21.9401 76.0673 17.25C76.0673 12.5382 79.7209 10.6274 84.888 10.6274C89.7307 10.6274 93.6006 12.2994 93.6006 18.1186H79.8506C80.2614 20.1596 82.2072 20.8327 84.6718 20.8327ZM84.8663 13.4502C82.3369 13.4502 80.5641 13.9496 79.9804 15.7518H89.6442C89.0172 13.9496 87.2012 13.4502 84.8663 13.4502Z" fill="#F6F6F7"/>
<path d="M66.9019 11.3835C68.9139 11.0269 70.8406 12.3769 71.1974 14.4116L72.2038 20.1495C72.4567 21.5914 71.4984 22.9585 70.076 23.2106C67.9453 23.5883 65.8893 22.4869 64.9606 20.6306C64.7441 20.1979 64.3732 19.9708 64.0836 19.8574C63.7913 19.7429 63.4913 19.7057 63.245 19.7057H58.5361C58.2897 19.7057 57.9897 19.7429 57.6974 19.8574C57.4078 19.9708 57.037 20.1979 56.8205 20.6306C55.8918 22.4869 53.8358 23.5884 51.705 23.2106C50.2826 22.9585 49.3243 21.5915 49.5772 20.1495L50.5836 14.4117C50.9405 12.3769 52.8672 11.0269 54.8792 11.3836C55.6286 11.5164 56.2835 11.8657 56.7947 12.3571C57.6156 13.1464 58.8292 14.1314 60.3677 14.1314H61.4133C62.9519 14.1314 64.1654 13.1464 64.9863 12.3571C65.4975 11.8657 66.1524 11.5164 66.9019 11.3835Z" stroke="#B2FE02" stroke-width="2"/>
<path fill-rule="evenodd" clip-rule="evenodd" d="M55.4857 14.7036C55.4857 14.4275 55.2618 14.2036 54.9857 14.2036H54.4415C54.1653 14.2036 53.9415 14.4275 53.9415 14.7036V15.2546C53.9415 15.5307 53.7176 15.7546 53.4415 15.7546H52.8972C52.6211 15.7546 52.3972 15.9784 52.3972 16.2546V16.8055C52.3972 17.0817 52.6211 17.3055 52.8972 17.3055H53.4415C53.7176 17.3055 53.9415 17.5294 53.9415 17.8055V18.3565C53.9415 18.6326 54.1653 18.8565 54.4415 18.8565H54.9857C55.2618 18.8565 55.4857 18.6326 55.4857 18.3565V17.8055C55.4857 17.5294 55.7096 17.3055 55.9857 17.3055H56.5299C56.8061 17.3055 57.0299 17.0817 57.0299 16.8055V16.2546C57.0299 15.9784 56.8061 15.7546 56.5299 15.7546H55.9857C55.7096 15.7546 55.4857 15.5307 55.4857 15.2546V14.7036Z" fill="#EEEEEF"/>
<path fill-rule="evenodd" clip-rule="evenodd" d="M67.8396 14.9757C67.8396 14.5493 67.4939 14.2036 67.0675 14.2036C66.641 14.2036 66.2953 14.5493 66.2953 14.9757V15.7546L65.5266 15.7546C65.0983 15.7546 64.7511 16.1018 64.7511 16.53C64.7511 16.9583 65.0983 17.3055 65.5266 17.3055H66.2953V18.0844C66.2953 18.5108 66.641 18.8565 67.0675 18.8565C67.4939 18.8565 67.8396 18.5108 67.8396 18.0844V17.3055H68.6083C69.0366 17.3055 69.3838 16.9583 69.3838 16.53C69.3838 16.1018 69.0366 15.7546 68.6083 15.7546L67.8396 15.7546V14.9757ZM67.8396 15.7546V17.3055H66.2953V15.7546H67.8396Z" fill="#B2FE02"/>
<path d="M37.1321 10.6274C42.4505 10.6274 45.4772 12.3428 45.5204 17.1849V23.6338H41.8019V22.0487C39.5535 23.1561 37.0673 23.8509 34.0622 23.8509C30.495 23.8509 28.2682 22.7001 28.2682 19.8122C28.2682 16.4901 31.9002 15.4478 35.9431 15.4478C38.1266 15.4478 40.1372 15.7952 41.8019 16.3598C41.8019 13.9279 38.6887 13.7325 36.9592 13.7325C35.2945 13.7325 33.2623 13.8845 30.6463 14.6661L29.3275 11.952C31.9219 11.1051 34.4729 10.6274 37.1321 10.6274ZM41.8019 19.6602V18.6614C40.5047 18.2488 38.7536 17.8797 36.3971 17.8797C33.6298 17.8797 31.9651 18.3574 31.9651 19.6602C31.9651 21.0064 33.1974 21.115 35.1215 21.115C37.1321 21.115 39.8994 20.4853 41.8019 19.6602Z" fill="#F6F6F7"/>
<path d="M17.3612 18.0315V15.491H26.9602V23.6336H24.0848L23.9118 21.2451C22.485 22.8084 20.2149 23.8507 16.9936 23.8507C11.4159 23.8507 8 21.0714 8 16.0339C8 10.9964 11.4159 8.21704 17.6422 8.21704C23.6956 8.21704 26.7224 10.5838 26.9602 14.3619H23.0038C22.7876 13.2111 21.7499 11.4958 17.6422 11.4958C12.5833 11.4958 11.8915 14.2968 11.8915 16.1207C11.8915 17.9664 12.6049 20.8325 17.6422 20.8325C21.404 20.8325 22.9173 19.1823 23.0038 18.0315H17.3612Z" fill="#F6F6F7"/>
</svg>
