<svg width="32" height="24" viewBox="0 0 32 24" fill="none" xmlns="http://www.w3.org/2000/svg">
<path fill-rule="evenodd" clip-rule="evenodd" d="M0.0563527 15.9396C0.493019 10.9095 3.22769 1.92007 11.5 0L13 3.06383C11.1667 3.91489 7.6 6.43404 8 9.70213L7.93001 9.76467C11.3564 10.2292 14 13.2248 14 16.8511C14 20.7993 10.866 24 7 24C3.13401 24 0 20.7993 0 16.8511C0 16.5423 0.0191672 16.2381 0.0563527 15.9396Z" fill="#B2FE02"/>
<path fill-rule="evenodd" clip-rule="evenodd" d="M18.0564 15.9396C18.493 10.9095 21.2277 1.92007 29.5 0L31 3.06383C29.1667 3.91489 25.6 6.43404 26 9.70213L25.93 9.76467C29.3564 10.2292 32 13.2248 32 16.8511C32 20.7993 28.866 24 25 24C21.134 24 18 20.7993 18 16.8511C18 16.5423 18.0192 16.2381 18.0564 15.9396Z" fill="#B2FE02"/>
</svg>
